# xmcd
#
# Track frame offsets:
#	150
#	13684
#	29368
#	43146
#	57614
#	68459
#	92036
#	107472
#	122001
#	140167
#	155658
#	168321
#	187337
#	209021
#	221508
#	235887
#	249196
#	264438
#	283306
#	305772
#
# Disc length: 4408 seconds
#
# Revision: 5
# Processed by: cddbd v1.5.2PL0 Copyright (c) Steve Scherf et al.
# Submitted via: VUPlayer 2.49
#
DISCID=32113614
DTITLE=Various Artist - Atlantic Rhythm and Blues [CD8 of 8))
DYEAR=1991
DGENRE=R&B
TTITLE0=Aretha Franklin - Don't Play That Song (You Lied)
TTITLE1=Jackie Moore - Precious Precious
TTITLE2=King Floyd - Groove Me
TTITLE3=Clarence Carter - Patches
TTITLE4=Wilson Pickett - Don't Knock My Love (Part 1)
TTITLE5=Beginning of the End - Funky Nassau
TTITLE6=The Persuaders - Thin Line Between Love And Hate
TTITLE7=Aretha Franklin - Rock Steady
TTITLE8=Aretha Franklin - Day Dreamin'
TTITLE9=Roberta Flack and Donny Hathaway - You've Got A Friend
TTITLE10=Betty Wright - Clean up Woman
TTITLE11=The Spinners - Could It Be I'm Falling In Love
TTITLE12=Roberta Flack - Killing Me Softly With His Song
TTITLE13=Roberta Flack and Donny Hathaway - Where Is The Love
TTITLE14=The Spinners - I'll Be Around
TTITLE15=Roberta Flack - Feel Like Makin' Love
TTITLE16=The Spinners - One Of A Kind
TTITLE17=Blue Magic - Sideshow
TTITLE18=The Spinners - Mighty Love
TTITLE19=Major Harris - Love Won't Let Me Wait
EXTD=1970-1974\nCD issued 1991, Atlantic, 7 82305-2
EXTT0=
EXTT1=
EXTT2=
EXTT3=
EXTT4=
EXTT5=
EXTT6=
EXTT7=
EXTT8=
EXTT9=
EXTT10=
EXTT11=
EXTT12=
EXTT13=
EXTT14=
EXTT15=
EXTT16=
EXTT17=
EXTT18=
EXTT19=
PLAYORDER=
